<?xml version="1.0" encoding="utf-8"?>
<!-- Generator: Adobe Illustrator 22.0.1, SVG Export Plug-In . SVG Version: 6.00 Build 0)  -->
<svg version="1.1" id="レイヤー_1" xmlns="http://www.w3.org/2000/svg" xmlns:xlink="http://www.w3.org/1999/xlink" x="0px"
	 y="0px" viewBox="0 0 458.7 102.6" style="enable-background:new 0 0 458.7 102.6;" xml:space="preserve">
<style type="text/css">
	.st0{fill:#2C2D2D;}
	.st1{fill:#FFFFFF;}
</style>
<rect y="0" class="st0" width="459" height="102.9"/>
<g>
	<g>
		<path class="st1" d="M76,34.3l-6.8,6.6c-4.6-5-9.8-7.5-15.5-7.5c-4.8,0-8.9,1.7-12.2,5.1c-3.3,3.4-5,7.6-5,12.6
			c0,3.5,0.7,6.6,2.2,9.3c1.5,2.7,3.5,4.8,6.2,6.4c2.7,1.5,5.7,2.3,9,2.3c2.8,0,5.4-0.5,7.7-1.6c2.3-1.1,4.9-3,7.6-5.9l6.5,7
			c-3.7,3.8-7.3,6.4-10.6,7.8c-3.3,1.5-7.1,2.2-11.4,2.2c-7.9,0-14.3-2.6-19.4-7.7c-5-5.1-7.5-11.7-7.5-19.8c0-5.2,1.1-9.8,3.4-13.9
			c2.3-4,5.6-7.3,9.8-9.8c4.3-2.5,8.9-3.7,13.8-3.7c4.2,0,8.2,0.9,12.1,2.7C69.8,28.3,73.2,30.9,76,34.3z"/>
		<path class="st1" d="M107.1,38.7h9.4v38.6h-9.4v-4.1c-1.8,1.8-3.7,3.1-5.5,3.9c-1.8,0.8-3.8,1.2-6,1.2c-4.8,0-9-1.9-12.6-5.8
			c-3.5-3.9-5.3-8.7-5.3-14.4c0-6,1.7-10.9,5.1-14.7c3.4-3.8,7.6-5.7,12.5-5.7c2.2,0,4.4,0.4,6.3,1.3c2,0.9,3.8,2.2,5.5,3.9V38.7z
			 M97.2,46.6c-2.9,0-5.3,1.1-7.2,3.2c-1.9,2.1-2.9,4.8-2.9,8.1c0,3.3,1,6.1,2.9,8.2c2,2.2,4.4,3.2,7.2,3.2c3,0,5.4-1.1,7.4-3.2
			c1.9-2.1,2.9-4.9,2.9-8.3c0-3.4-1-6.1-2.9-8.2C102.7,47.7,100.2,46.6,97.2,46.6z"/>
		<path class="st1" d="M121.5,38.7h3.3c0-5.1,0.1-8.1,0.2-9c0.3-2.1,1.1-3.8,2.6-5.1c1.5-1.2,3.6-1.9,6.3-1.9c2,0,4.2,0.5,6.6,1.4
			v7.4c-1.4-0.4-2.5-0.6-3.3-0.6c-1.1,0-1.9,0.2-2.4,0.7c-0.4,0.4-0.6,1.1-0.6,2.2l0,4.8h6v8.2h-6v30.4h-9.4V46.9h-3.3V38.7z"/>
		<path class="st1" d="M181.5,60.8h-30.2c0.4,2.7,1.6,4.9,3.5,6.6c1.9,1.6,4.3,2.4,7.3,2.4c3.5,0,6.5-1.3,9.1-3.8l7.9,3.8
			c-2,2.9-4.3,5-7.1,6.4c-2.8,1.4-6,2.1-9.8,2.1c-5.9,0-10.7-1.9-14.4-5.7c-3.7-3.8-5.5-8.6-5.5-14.4c0-5.9,1.8-10.8,5.5-14.7
			c3.7-3.9,8.3-5.8,13.9-5.8c5.9,0,10.7,1.9,14.4,5.8c3.7,3.9,5.5,9,5.5,15.4L181.5,60.8z M172.1,53.2c-0.6-2.2-1.8-3.9-3.7-5.3
			c-1.8-1.3-4-2-6.4-2c-2.6,0-4.9,0.8-6.9,2.3c-1.2,0.9-2.4,2.6-3.5,5H172.1z"/>
		<path class="st1" d="M267.7,25.1H278c5.5,0,9.5,0.5,12,1.6c2.4,1.1,4.4,2.8,5.8,5.1c1.4,2.4,2.1,5.2,2.1,8.5
			c0,3.6-0.9,6.7-2.8,9.1c-1.8,2.4-4.4,4.1-7.5,5c-1.9,0.5-5.2,0.8-10.2,0.8v22.1h-9.7V25.1z M277.4,45.5h3.1c2.4,0,4.1-0.2,5-0.5
			c0.9-0.4,1.7-0.9,2.2-1.8c0.5-0.8,0.8-1.8,0.8-3c0-2-0.8-3.5-2.3-4.4c-1.1-0.7-3.1-1-6.1-1h-2.7V45.5z"/>
		<path class="st1" d="M311.8,25.1h9.8l19.5,52.2h-10l-4-10.8h-20.7l-4.1,10.8h-10L311.8,25.1z M316.7,38.9l-6.8,17.9h13.6
			L316.7,38.9z"/>
		<path class="st1" d="M345.2,25.1h10.2c5.6,0,9.6,0.5,12,1.5c2.4,1,4.3,2.7,5.7,5.1c1.4,2.4,2.2,5.2,2.2,8.5c0,3.4-0.8,6.3-2.4,8.6
			c-1.6,2.3-4,4.1-7.2,5.2l12,23.2h-10.6l-11.4-22.1h-0.9v22.1h-9.7V25.1z M354.9,45.5h3c3.1,0,5.2-0.4,6.3-1.2
			c1.2-0.8,1.7-2.2,1.7-4.1c0-1.1-0.3-2.1-0.9-3c-0.6-0.8-1.3-1.4-2.3-1.8c-1-0.4-2.7-0.6-5.3-0.6h-2.6V45.5z"/>
		<path class="st1" d="M383.6,25.1h9.6v52.2h-9.6V25.1z"/>
		<path class="st1" d="M431.2,32.2l-7.1,6.5c-2.5-3.6-5.1-5.4-7.7-5.4c-1.3,0-2.3,0.3-3.1,1c-0.8,0.7-1.2,1.5-1.2,2.4
			c0,0.9,0.3,1.7,0.9,2.5c0.8,1,3.1,3.3,7.1,6.7c3.7,3.2,5.9,5.2,6.7,6c2,2,3.3,4,4.2,5.8c0.8,1.9,1.2,3.9,1.2,6.1
			c0,4.3-1.4,7.8-4.3,10.6c-2.9,2.8-6.6,4.2-11.2,4.2c-3.6,0-6.8-0.9-9.4-2.7c-2.7-1.8-5-4.7-6.9-8.6l8.1-5c2.4,4.6,5.2,6.9,8.4,6.9
			c1.7,0,3-0.5,4.2-1.5c1.1-1,1.7-2.1,1.7-3.4c0-1.2-0.4-2.4-1.3-3.6c-0.8-1.2-2.7-3-5.6-5.4c-5.5-4.6-9.1-8.2-10.7-10.7
			c-1.6-2.5-2.4-5-2.4-7.5c0-3.6,1.3-6.7,4-9.3c2.7-2.6,6-3.9,9.9-3.9c2.5,0,4.9,0.6,7.2,1.8C426.1,26.8,428.6,29,431.2,32.2z"/>
		<g>
			<path class="st1" d="M205.5,45.4c-1.5,0-2.8,0.6-3.8,1.8c-1,1.2-1.5,2.7-1.5,4.5c0,1.9,0.5,3.4,1.5,4.6c1,1.2,2.3,1.8,3.8,1.8
				c1.6,0,2.8-0.6,3.9-1.8c1-1.2,1.5-2.7,1.5-4.6c0-1.9-0.5-3.4-1.5-4.5C208.3,45.9,207,45.4,205.5,45.4z"/>
			<path class="st1" d="M232,46.1c-1-0.7-2.1-1.1-3.4-1.1c-1.4,0-2.6,0.4-3.6,1.3c-0.7,0.5-1.3,1.4-1.8,2.8h10.7
				C233.6,47.8,232.9,46.8,232,46.1z"/>
			<path class="st1" d="M246.6,30.5v-5.8h-58.3v26.7c0,15.8,13.1,28.7,29.3,28.7c13.2,0,24.3-8.6,28-20.3c0.3,0,0.5,0,0.8,0
				c8.3,0,14.9-6.6,15-14.7C261.2,37.1,254.7,30.7,246.6,30.5z M215.6,62.4h-5v-2.3c-1,1-1.9,1.7-2.9,2.2c-1,0.4-2,0.7-3.2,0.7
				c-2.5,0-4.8-1.1-6.6-3.2c-1.9-2.1-2.8-4.8-2.8-8c0-3.3,0.9-6,2.7-8.1c1.8-2.1,4-3.2,6.6-3.2c1.2,0,2.3,0.2,3.3,0.7
				c1,0.5,2,1.2,2.9,2.2V32.7h5V62.4z M238.9,53.2H223c0.2,1.5,0.8,2.7,1.8,3.6c1,0.9,2.3,1.3,3.8,1.3c1.9,0,3.4-0.7,4.8-2.1
				l4.2,2.1c-1,1.6-2.3,2.8-3.7,3.6c-1.5,0.8-3.2,1.2-5.2,1.2c-3.1,0-5.6-1.1-7.6-3.2c-1.9-2.1-2.9-4.8-2.9-8c0-3.3,1-6,2.9-8.1
				c1.9-2.2,4.4-3.2,7.3-3.2c3.1,0,5.6,1.1,7.6,3.2c1.9,2.2,2.9,5,2.9,8.5L238.9,53.2z M246.7,50.3c0-0.7,0-1.3-0.1-2V40
				c2.8,0.2,5,2.4,5,5.2C251.6,47.8,249.4,50,246.7,50.3z"/>
		</g>
	</g>
	
		<rect x="160.9" y="24.7" transform="matrix(0.401 0.9161 -0.9161 0.401 126.0513 -132.3942)" class="st1" width="6.7" height="11"/>
</g>
</svg>
